<?xml version="1.0"?>
<!DOCTYPE svg PUBLIC "-//W3C//DTD SVG 1.1//EN" "http://www.w3.org/Graphics/SVG/1.1/DTD/svg11.dtd">
<svg width="29.11014715196616mm" height="56.44414453664446mm" viewBox="0 0 29.11014715196616 56.44414453664446" xmlns="http://www.w3.org/2000/svg" version="1.1">
<g id="Pad005" transform="translate(-90.466671,24.563139) scale(1,-1)">
<path id="Pad005_f0000"  d="M 105.35946328540965 -9.950520650460732 A 10.6928 10.6928 0 0 0 90.7521 -1.30949e-15L 90.75206429000477 6.547472079476913e-16 A 10.6928 10.6928 0 0 1 105.359 -9.95052L 105.35946328540996 -9.950520650460664 Z " stroke="#191919" stroke-width="0.35 px" style="stroke-width:0.35;stroke-miterlimit:4;stroke-dasharray:none;fill:#cccccc;fill-opacity:1.0;fill-rule: evenodd"/>
<path id="Pad005_f0001"  d="M 104.58110565799585 -25.57115871951882 L 104.58110565799585 -25.57115871951882 A 7.83647 7.83647 0 1 1 105.359 -9.95052L 105.35946328540996 -9.950520650460664 A 7.83647 7.83647 0 1 0 104.581 -25.5712Z " stroke="#191919" stroke-width="0.35 px" style="stroke-width:0.35;stroke-miterlimit:4;stroke-dasharray:none;fill:#cccccc;fill-opacity:1.0;fill-rule: evenodd"/>
<path id="Pad005_f0002"  d="M 104.58110565799585 -31.57115871951882 L 104.58110565799585 -25.57115871951882 L 104.58110565799585 -25.57115871951882 L 104.58110565799585 -31.57115871951882 L 104.58110565799585 -31.57115871951882 Z " stroke="#191919" stroke-width="0.35 px" style="stroke-width:0.35;stroke-miterlimit:4;stroke-dasharray:none;fill:#cccccc;fill-opacity:1.0;fill-rule: evenodd"/>
<path id="Pad005_f0003"  d="M 110.72947479278149 -5.009356337335555 A 13.8142 13.8142 0 0 0 104.581 -31.5712L 104.58110565799585 -31.57115871951882 A 13.8142 13.8142 0 0 1 110.729 -5.00936L 110.72947479278149 -5.009356337335561 Z " stroke="#191919" stroke-width="0.35 px" style="stroke-width:0.35;stroke-miterlimit:4;stroke-dasharray:none;fill:#cccccc;fill-opacity:1.0;fill-rule: evenodd"/>
<path id="Pad005_f0004"  d="M 100.59669523858697 10.515587299773706 A 10.5497 10.5497 0 0 0 110.729 -5.00936L 110.72947479278149 -5.009356337335561 A 10.5497 10.5497 0 0 1 100.597 10.5156L 100.59669523858697 10.515587299773706 Z " stroke="#191919" stroke-width="0.35 px" style="stroke-width:0.35;stroke-miterlimit:4;stroke-dasharray:none;fill:#cccccc;fill-opacity:1.0;fill-rule: evenodd"/>
<path id="Pad005_f0005"  d="M 100.59669523858697 17.858657999999988 L 100.59669523858697 17.858657999999988 L 100.59669523858697 10.515587299773706 L 100.59669523858697 10.515587299773706 L 100.59669523858697 17.858657999999988 Z " stroke="#191919" stroke-width="0.35 px" style="stroke-width:0.35;stroke-miterlimit:4;stroke-dasharray:none;fill:#cccccc;fill-opacity:1.0;fill-rule: evenodd"/>
<path id="Pad005_f0006"  d="M 93.1845253441073 16.772217000000005 A 4.50158 4.50158 0 1 0 100.597 17.8587L 100.59669523858697 17.858657999999988 A 4.50158 4.50158 0 1 1 93.1845 16.7722L 93.18452534410729 16.77221700000001 Z " stroke="#191919" stroke-width="0.35 px" style="stroke-width:0.35;stroke-miterlimit:4;stroke-dasharray:none;fill:#cccccc;fill-opacity:1.0;fill-rule: evenodd"/>
<path id="Pad005_f0007"  d="M 90.75206429000475 0.0 L 93.18452534410729 16.77221700000001 L 93.18452534410729 16.77221700000001 L 90.75206429000477 6.547472079476913e-16 L 90.75206429000477 6.547472079476913e-16 Z " stroke="#191919" stroke-width="0.35 px" style="stroke-width:0.35;stroke-miterlimit:4;stroke-dasharray:none;fill:#cccccc;fill-opacity:1.0;fill-rule: evenodd"/>
<circle cx="101.44489765220945" cy="3.854887286721528e-34" r="1.75" stroke="#191919" stroke-width="0.35 px" style="stroke-width:0.35;stroke-miterlimit:4;stroke-dasharray:none;fill:#cccccc"/>
<circle cx="96.52850928640547" cy="19.785847000000004" r="1.55" stroke="#191919" stroke-width="0.35 px" style="stroke-width:0.35;stroke-miterlimit:4;stroke-dasharray:none;fill:#cccccc"/>
<circle cx="101.44489765220945" cy="3.854887286721528e-34" r="1.75" stroke="#191919" stroke-width="0.35 px" style="stroke-width:0.35;stroke-miterlimit:4;stroke-dasharray:none;fill:#cccccc"/>
<circle cx="101.44489765220945" cy="3.3839473853554746e-33" r="1.75" stroke="#191919" stroke-width="0.35 px" style="stroke-width:0.35;stroke-miterlimit:4;stroke-dasharray:none;fill:#cccccc"/>
<title>b'Pad005'</title>
</g>
</svg>